<svg width="347" height="72" viewBox="0 0 347 72" fill="none" xmlns="http://www.w3.org/2000/svg">
<path d="M310.738 16.5983C310.738 31.796 318.787 46.1105 329.679 56.7084C334.375 61.2769 339.733 65.7941 344.659 70.0165C348.037 72.9125 337.758 64.3921 334.198 61.7221C327.771 56.9019 322.495 51.7524 316.866 46.1238C314.19 43.4476 310.318 39.0941 306.282 38.8817C302.624 38.6892 299.969 36.9601 296.626 35.5392C289.685 32.5892 281.475 30.8592 273.971 30.2159C251.45 28.2855 230.296 31.6086 208.235 34.6726C177.312 38.9675 147.243 41.11 115.883 41.11C89.7429 41.11 55.3694 40.258 32.1967 25.5117C24.645 20.7061 16.5337 17.4689 9.91333 11.0275C7.19548 8.38311 3.89971 2.44986 1 1" stroke="#A49DF4" stroke-width="1.5" stroke-linecap="round" stroke-linejoin="round"/>
</svg>
