<svg width="64" height="116" viewBox="0 0 64 116" fill="none" xmlns="http://www.w3.org/2000/svg">
<path d="M49.4711 18.7846V18.2846C49.2518 18.2846 49.058 18.4276 48.9933 18.6372L49.4711 18.7846ZM50.0796 14.3459L49.5848 14.274C49.5639 14.4176 49.6065 14.5632 49.7015 14.673C49.7964 14.7828 49.9344 14.8459 50.0796 14.8459V14.3459ZM36.9976 18.7846L37.4754 18.6372C37.4108 18.4276 37.217 18.2846 36.9976 18.2846V18.7846ZM36.3892 14.3459V14.8459C36.5343 14.8459 36.6723 14.7828 36.7673 14.673C36.8623 14.5632 36.9049 14.4176 36.884 14.274L36.3892 14.3459ZM56.639 29.103L56.914 28.6855C56.9023 28.6777 56.8902 28.6704 56.8778 28.6637L56.639 29.103ZM57.1244 31.3705C57.1244 31.6467 57.3482 31.8705 57.6244 31.8705C57.9005 31.8705 58.1244 31.6467 58.1244 31.3705H57.1244ZM47.5932 22.1529C47.5159 21.8879 47.2383 21.7356 46.9732 21.813C46.7081 21.8903 46.5559 22.1679 46.6333 22.433L47.5932 22.1529ZM29.8298 29.103L29.591 28.6637C29.5786 28.6704 29.5665 28.6777 29.5547 28.6855L29.8298 29.103ZM28.3444 31.3705C28.3444 31.6467 28.5683 31.8705 28.8444 31.8705C29.1206 31.8705 29.3444 31.6467 29.3444 31.3705H28.3444ZM50.7004 12.8203C50.71 12.5443 50.4941 12.3128 50.2182 12.3031C49.9422 12.2935 49.7106 12.5093 49.701 12.7853L50.7004 12.8203ZM36.7678 12.7853C36.7581 12.5093 36.5266 12.2935 36.2506 12.3031C35.9746 12.3128 35.7587 12.5443 35.7684 12.8203L36.7678 12.7853ZM55.9794 47.1525C56.2397 47.0603 56.376 46.7746 56.2838 46.5143C56.1917 46.254 55.9059 46.1176 55.6456 46.2098L55.9794 47.1525ZM50.3505 48.615L50.1836 48.1437L50.3505 48.615ZM48.8023 47.145L49.2816 47.2872L49.2816 47.2872L48.8023 47.145ZM48.827 47.0618L48.3476 46.9195L48.3476 46.9195L48.827 47.0618ZM47.2787 45.5917L47.1119 45.1204L47.2787 45.5917ZM41.6498 47.0543C41.3895 47.1464 41.2532 47.4322 41.3454 47.6925C41.4375 47.9528 41.7233 48.0891 41.9836 47.9969L41.6498 47.0543ZM27.2667 98.6511C27.0146 98.5384 26.7189 98.6513 26.6061 98.9034C26.4933 99.1554 26.6063 99.4512 26.8583 99.5639L27.2667 98.6511ZM30.335 100.571L30.1308 101.028L30.335 100.571ZM31.2626 99.4587L31.7494 99.3443V99.3443L31.2626 99.4587ZM31.2478 99.3957L30.7611 99.51V99.51L31.2478 99.3957ZM32.1754 98.2828L31.9712 98.7393L32.1754 98.2828ZM35.2438 100.203C35.4958 100.316 35.7916 100.203 35.9043 99.951C36.0171 99.6989 35.9042 99.4032 35.6521 99.2904L35.2438 100.203ZM36.6918 71.824V71.324C36.4724 71.324 36.2786 71.467 36.214 71.6767L36.6918 71.824ZM37.2806 67.5285L36.7858 67.4566C36.7649 67.6002 36.8075 67.7458 36.9025 67.8556C36.9974 67.9654 37.1354 68.0285 37.2806 68.0285V67.5285ZM24.6206 71.824L25.0984 71.6767C25.0338 71.467 24.84 71.324 24.6206 71.324V71.824ZM24.0318 67.5285V68.0285C24.177 68.0285 24.315 67.9654 24.4099 67.8556C24.5049 67.7458 24.5475 67.6002 24.5266 67.4566L24.0318 67.5285ZM43.6284 81.8096L43.9034 81.392C43.8917 81.3843 43.8796 81.377 43.8672 81.3703L43.6284 81.8096ZM44.082 83.6494C44.082 83.9256 44.3058 84.1494 44.582 84.1494C44.8581 84.1494 45.082 83.9256 45.082 83.6494H44.082ZM34.8899 75.0792C34.8126 74.8141 34.535 74.6619 34.2699 74.7392C34.0048 74.8166 33.8526 75.0942 33.9299 75.3593L34.8899 75.0792ZM17.684 81.8096L17.4452 81.3703C17.4328 81.377 17.4207 81.3843 17.409 81.392L17.684 81.8096ZM16.2304 83.6494C16.2304 83.9256 16.4543 84.1494 16.7304 84.1494C17.0066 84.1494 17.2304 83.9256 17.2304 83.6494H16.2304ZM37.8975 66.0527C37.9071 65.7767 37.6912 65.5452 37.4153 65.5355C37.1393 65.5258 36.9077 65.7417 36.8981 66.0177L37.8975 66.0527ZM24.4143 66.0177C24.4047 65.7417 24.1731 65.5258 23.8971 65.5355C23.6212 65.5452 23.4053 65.7767 23.4149 66.0527L24.4143 66.0177ZM24.1667 19.7657C24.1667 30.2965 32.7036 38.8334 43.2344 38.8334V37.8334C33.2559 37.8334 25.1667 29.7442 25.1667 19.7657H24.1667ZM43.2344 38.8334C53.7652 38.8334 62.3021 30.2965 62.3021 19.7657H61.3021C61.3021 29.7442 53.2129 37.8334 43.2344 37.8334V38.8334ZM62.3021 19.7657C62.3021 9.2349 53.7652 0.697998 43.2344 0.697998V1.698C53.2129 1.698 61.3021 9.78719 61.3021 19.7657H62.3021ZM43.2344 0.697998C32.7036 0.697998 24.1667 9.2349 24.1667 19.7657H25.1667C25.1667 9.78719 33.2559 1.698 43.2344 1.698V0.697998ZM48.9933 18.6372C48.7607 19.3916 48.1832 20.551 47.2232 21.514C46.2715 22.4687 44.9604 23.2165 43.2344 23.2165V24.2165C45.2808 24.2165 46.8346 23.3203 47.9314 22.22C49.0199 21.1281 49.6745 19.8216 49.9489 18.932L48.9933 18.6372ZM49.4711 19.2846C50.2279 19.2846 50.8048 18.9078 51.188 18.3876C51.5621 17.8799 51.7604 17.2304 51.8137 16.6079C51.8669 15.9873 51.7809 15.3354 51.5232 14.8169C51.2602 14.2876 50.7819 13.8459 50.0796 13.8459V14.8459C50.29 14.8459 50.4772 14.959 50.6277 15.2619C50.7836 15.5757 50.8592 16.0335 50.8173 16.5226C50.7756 17.0098 50.6221 17.4699 50.383 17.7945C50.153 18.1066 49.8552 18.2846 49.4711 18.2846V19.2846ZM36.5198 18.932C36.8322 19.9448 37.642 21.5101 39.0345 22.6763L39.6765 21.9096C38.4593 20.8902 37.7425 19.5032 37.4754 18.6372L36.5198 18.932ZM39.0345 22.6763C40.0887 23.5592 41.4826 24.2165 43.2344 24.2165V23.2165C41.7525 23.2165 40.5797 22.666 39.6765 21.9096L39.0345 22.6763ZM36.9976 18.2846C36.6136 18.2846 36.3158 18.1066 36.0858 17.7945C35.8467 17.4699 35.6932 17.0098 35.6514 16.5226C35.6095 16.0335 35.6851 15.5757 35.8411 15.2619C35.9916 14.959 36.1788 14.8459 36.3892 14.8459V13.8459C35.6869 13.8459 35.2085 14.2876 34.9455 14.8169C34.6879 15.3354 34.6019 15.9873 34.6551 16.6079C34.7084 17.2304 34.9066 17.8799 35.2807 18.3876C35.664 18.9078 36.2409 19.2846 36.9976 19.2846V18.2846ZM48.337 25.1599L56.4002 29.5423L56.8778 28.6637L48.8146 24.2812L48.337 25.1599ZM56.364 29.5206C56.5491 29.6425 56.7455 29.9084 56.8977 30.2841C57.0459 30.65 57.1244 31.0526 57.1244 31.3705H58.1244C58.1244 30.9111 58.016 30.3813 57.8245 29.9086C57.6369 29.4456 57.3407 28.9665 56.914 28.6855L56.364 29.5206ZM47.1132 22.293C46.6333 22.433 46.6333 22.4331 46.6333 22.4332C46.6333 22.4333 46.6334 22.4334 46.6334 22.4335C46.6334 22.4336 46.6335 22.4338 46.6336 22.4341C46.6337 22.4345 46.6339 22.4351 46.6341 22.4358C46.6345 22.4371 46.635 22.4389 46.6357 22.4412C46.637 22.4456 46.6388 22.4518 46.6412 22.4596C46.646 22.4751 46.6528 22.4971 46.6617 22.5248C46.6794 22.5802 46.7055 22.6586 46.7396 22.7541C46.8077 22.9444 46.9089 23.2057 47.0418 23.4887C47.2955 24.0289 47.7097 24.7488 48.3008 25.1381L48.8508 24.303C48.5081 24.0773 48.191 23.5834 47.9469 23.0636C47.8309 22.8166 47.7416 22.5862 47.6813 22.4175C47.6512 22.3335 47.6287 22.2655 47.6139 22.2193C47.6065 22.1963 47.6011 22.1787 47.5976 22.1674C47.5959 22.1618 47.5946 22.1577 47.5939 22.1552C47.5935 22.154 47.5933 22.1532 47.5932 22.1528C47.5931 22.1526 47.5931 22.1525 47.5931 22.1525C47.5931 22.1526 47.5931 22.1526 47.5932 22.1527C47.5932 22.1527 47.5932 22.1528 47.5932 22.1528C47.5932 22.1529 47.5932 22.1529 47.1132 22.293ZM37.6542 24.2812L29.591 28.6637L30.0685 29.5423L38.1317 25.1599L37.6542 24.2812ZM29.5547 28.6855C29.1281 28.9665 28.8318 29.4456 28.6443 29.9086C28.4528 30.3813 28.3444 30.9111 28.3444 31.3705H29.3444C29.3444 31.0526 29.4229 30.65 29.5711 30.2841C29.7233 29.9084 29.9197 29.6425 30.1048 29.5206L29.5547 28.6855ZM39.3555 22.293C38.8755 22.1529 38.8756 22.1529 38.8756 22.1528C38.8756 22.1528 38.8756 22.1527 38.8756 22.1527C38.8756 22.1526 38.8756 22.1526 38.8757 22.1525C38.8757 22.1525 38.8756 22.1526 38.8756 22.1528C38.8755 22.1532 38.8752 22.154 38.8749 22.1552C38.8741 22.1577 38.8729 22.1618 38.8712 22.1674C38.8677 22.1787 38.8623 22.1963 38.8549 22.2193C38.8401 22.2655 38.8175 22.3335 38.7875 22.4175C38.7272 22.5862 38.6378 22.8166 38.5218 23.0636C38.2777 23.5834 37.9606 24.0773 37.6179 24.303L38.168 25.1381C38.7591 24.7488 39.1732 24.0289 39.427 23.4887C39.5599 23.2057 39.6611 22.9444 39.7291 22.7541C39.7633 22.6586 39.7893 22.5802 39.8071 22.5248C39.816 22.4971 39.8228 22.4751 39.8275 22.4596C39.8299 22.4518 39.8318 22.4456 39.8331 22.4412C39.8338 22.4389 39.8343 22.4371 39.8347 22.4358C39.8349 22.4351 39.8351 22.4345 39.8352 22.4341C39.8353 22.4338 39.8353 22.4336 39.8354 22.4335C39.8354 22.4334 39.8354 22.4333 39.8355 22.4332C39.8355 22.4331 39.8355 22.433 39.3555 22.293ZM50.0796 14.3459C50.5744 14.4178 50.5744 14.4178 50.5744 14.4178C50.5744 14.4177 50.5744 14.4177 50.5744 14.4177C50.5744 14.4176 50.5744 14.4175 50.5745 14.4174C50.5745 14.4172 50.5745 14.417 50.5745 14.4168C50.5746 14.4162 50.5747 14.4156 50.5748 14.4148C50.5751 14.4132 50.5754 14.411 50.5758 14.4082C50.5765 14.4026 50.5776 14.3947 50.579 14.3846C50.5817 14.3643 50.5855 14.3351 50.5902 14.2973C50.5994 14.2219 50.612 14.1126 50.6255 13.9737C50.6525 13.6961 50.6836 13.2999 50.7004 12.8203L49.701 12.7853C49.685 13.2414 49.6555 13.6167 49.6302 13.8768C49.6175 14.0067 49.6059 14.1077 49.5976 14.1754C49.5935 14.2092 49.5901 14.2347 49.5879 14.2513C49.5868 14.2596 49.586 14.2657 49.5854 14.2695C49.5852 14.2714 49.585 14.2727 49.5849 14.2735C49.5848 14.2739 49.5848 14.2741 49.5848 14.2742C49.5848 14.2742 49.5848 14.2742 49.5848 14.2742C49.5848 14.2741 49.5848 14.2741 49.5848 14.2741C49.5848 14.2741 49.5848 14.274 49.5848 14.274C49.5848 14.274 49.5848 14.274 50.0796 14.3459ZM36.3892 14.3459C36.884 14.274 36.884 14.274 36.884 14.274C36.884 14.274 36.884 14.2741 36.884 14.2741C36.884 14.2741 36.884 14.2742 36.884 14.2742C36.884 14.2742 36.884 14.2742 36.884 14.2742C36.884 14.2741 36.884 14.2739 36.8839 14.2735C36.8838 14.2727 36.8836 14.2714 36.8833 14.2695C36.8828 14.2657 36.882 14.2597 36.8809 14.2513C36.8786 14.2347 36.8753 14.2092 36.8711 14.1754C36.8628 14.1077 36.8512 14.0068 36.8386 13.8768C36.8132 13.6168 36.7838 13.2414 36.7678 12.7853L35.7684 12.8203C35.7852 13.2999 35.8162 13.6961 35.8433 13.9737C35.8568 14.1125 35.8693 14.2219 35.8786 14.2973C35.8832 14.3351 35.887 14.3643 35.8898 14.3846C35.8911 14.3947 35.8922 14.4026 35.893 14.4082C35.8934 14.411 35.8937 14.4132 35.8939 14.4148C35.894 14.4156 35.8941 14.4162 35.8942 14.4168C35.8943 14.417 35.8943 14.4172 35.8943 14.4174C35.8943 14.4175 35.8943 14.4176 35.8943 14.4177C35.8944 14.4177 35.8944 14.4177 35.8944 14.4178C35.8944 14.4178 35.8944 14.4178 36.3892 14.3459ZM48.261 24.3321C46.2947 25.9255 44.8317 26.6643 43.382 26.6768C41.9288 26.6893 40.3648 25.9731 38.1957 24.3226L37.5902 25.1185C39.7988 26.799 41.5899 27.6923 43.3906 27.6768C45.1949 27.6613 46.8846 26.7346 48.8906 25.109L48.261 24.3321ZM0.208344 16.7709C0.208344 21.6782 4.18648 25.6563 9.09376 25.6563V24.6563C4.73876 24.6563 1.20834 21.1259 1.20834 16.7709H0.208344ZM9.09376 25.6563C14.001 25.6563 17.9792 21.6782 17.9792 16.7709H16.9792C16.9792 21.1259 13.4488 24.6563 9.09376 24.6563V25.6563ZM17.9792 16.7709C17.9792 11.8636 14.001 7.8855 9.09376 7.8855V8.8855C13.4488 8.8855 16.9792 12.4159 16.9792 16.7709H17.9792ZM9.09376 7.8855C4.18648 7.8855 0.208344 11.8636 0.208344 16.7709H1.20834C1.20834 12.4159 4.73876 8.8855 9.09376 8.8855V7.8855ZM14.5833 44.323C14.5833 47.9071 17.4888 50.8126 21.0729 50.8126V49.8126C18.0411 49.8126 15.5833 47.3548 15.5833 44.323H14.5833ZM21.0729 50.8126C24.657 50.8126 27.5625 47.9071 27.5625 44.323H26.5625C26.5625 47.3548 24.1047 49.8126 21.0729 49.8126V50.8126ZM27.5625 44.323C27.5625 40.7389 24.657 37.8334 21.0729 37.8334V38.8334C24.1047 38.8334 26.5625 41.2912 26.5625 44.323H27.5625ZM21.0729 37.8334C17.4888 37.8334 14.5833 40.7389 14.5833 44.323H15.5833C15.5833 41.2912 18.0411 38.8334 21.0729 38.8334V37.8334ZM50.5208 95.8334C50.5208 99.4175 53.4263 102.323 57.0104 102.323V101.323C53.9786 101.323 51.5208 98.8652 51.5208 95.8334H50.5208ZM57.0104 102.323C60.5945 102.323 63.5 99.4175 63.5 95.8334H62.5C62.5 98.8652 60.0422 101.323 57.0104 101.323V102.323ZM63.5 95.8334C63.5 92.2493 60.5945 89.3438 57.0104 89.3438V90.3438C60.0422 90.3438 62.5 92.8016 62.5 95.8334H63.5ZM57.0104 89.3438C53.4263 89.3438 50.5208 92.2493 50.5208 95.8334H51.5208C51.5208 92.8016 53.9786 90.3438 57.0104 90.3438V89.3438ZM6.19792 106.615C6.19792 111.522 10.1761 115.5 15.0833 115.5V114.5C10.7283 114.5 7.19792 110.97 7.19792 106.615H6.19792ZM15.0833 115.5C19.9906 115.5 23.9687 111.522 23.9687 106.615H22.9687C22.9687 110.97 19.4383 114.5 15.0833 114.5V115.5ZM23.9687 106.615C23.9687 101.707 19.9906 97.7293 15.0833 97.7293V98.7293C19.4383 98.7293 22.9687 102.26 22.9687 106.615H23.9687ZM15.0833 97.7293C10.1761 97.7293 6.19792 101.707 6.19792 106.615H7.19792C7.19792 102.26 10.7283 98.7293 15.0833 98.7293V97.7293ZM55.6456 46.2098L50.1836 48.1437L50.5174 49.0864L55.9794 47.1525L55.6456 46.2098ZM49.2816 47.2872L49.3063 47.204L48.3476 46.9195L48.3229 47.0027L49.2816 47.2872ZM47.1119 45.1204L41.6498 47.0543L41.9836 47.9969L47.4456 46.063L47.1119 45.1204ZM49.3063 47.204C49.7011 45.8737 48.42 44.6572 47.1119 45.1204L47.4456 46.063C47.9833 45.8727 48.5099 46.3727 48.3476 46.9195L49.3063 47.204ZM50.1836 48.1437C49.6459 48.3341 49.1193 47.8341 49.2816 47.2872L48.3229 47.0027C47.9281 48.333 49.2092 49.5495 50.5174 49.0864L50.1836 48.1437ZM26.8583 99.5639L30.1308 101.028L30.5392 100.115L27.2667 98.6511L26.8583 99.5639ZM31.7494 99.3443L31.7346 99.2813L30.7611 99.51L30.7759 99.573L31.7494 99.3443ZM31.9712 98.7393L35.2438 100.203L35.6521 99.2904L32.3796 97.8264L31.9712 98.7393ZM31.7346 99.2813C31.6859 99.0739 31.746 98.8959 31.8258 98.8002C31.8645 98.7537 31.8985 98.737 31.9155 98.7319C31.9268 98.7286 31.9416 98.726 31.9712 98.7393L32.3796 97.8264C31.8548 97.5917 31.3514 97.8075 31.0576 98.1599C30.7701 98.5049 30.6429 99.0069 30.7611 99.51L31.7346 99.2813ZM30.1308 101.028C30.6556 101.263 31.159 101.047 31.4528 100.694C31.7403 100.349 31.8675 99.8474 31.7494 99.3443L30.7759 99.573C30.8246 99.7804 30.7645 99.9584 30.6847 100.054C30.6459 100.101 30.6119 100.117 30.595 100.122C30.5836 100.126 30.5688 100.128 30.5392 100.115L30.1308 101.028ZM10.9895 71.875C10.9895 82.7366 19.7946 91.5417 30.6562 91.5417V90.5417C20.3469 90.5417 11.9895 82.1843 11.9895 71.875H10.9895ZM30.6562 91.5417C41.5178 91.5417 50.3229 82.7366 50.3229 71.875H49.3229C49.3229 82.1843 40.9655 90.5417 30.6562 90.5417V91.5417ZM50.3229 71.875C50.3229 61.0134 41.5178 52.2084 30.6562 52.2084V53.2084C40.9655 53.2084 49.3229 61.5657 49.3229 71.875H50.3229ZM30.6562 52.2084C19.7946 52.2084 10.9895 61.0134 10.9895 71.875H11.9895C11.9895 61.5657 20.3469 53.2084 30.6562 53.2084V52.2084ZM36.214 71.6767C35.9895 72.4045 35.4319 73.5241 34.5049 74.454C33.5863 75.3755 32.3214 76.0968 30.6562 76.0968V77.0968C32.6418 77.0968 34.1493 76.2272 35.2131 75.16C36.2686 74.1013 36.9034 72.8345 37.1696 71.9714L36.214 71.6767ZM36.6918 72.324C37.4301 72.324 37.9929 71.9562 38.3663 71.4494C38.7305 70.9551 38.923 70.3235 38.9748 69.7189C39.0265 69.1162 38.9431 68.4822 38.6921 67.9772C38.4358 67.4613 37.9682 67.0285 37.2806 67.0285V68.0285C37.4763 68.0285 37.6527 68.1326 37.7966 68.4222C37.9458 68.7225 38.0189 69.1625 37.9785 69.6336C37.9383 70.1029 37.7904 70.5452 37.5612 70.8563C37.3411 71.1549 37.0574 71.324 36.6918 71.324V72.324ZM24.1429 71.9714C24.4459 72.9539 25.231 74.4716 26.5814 75.6026L27.2235 74.8359C26.0483 73.8517 25.3562 72.5124 25.0984 71.6767L24.1429 71.9714ZM26.5814 75.6026C27.6041 76.459 28.9566 77.0968 30.6562 77.0968V76.0968C29.2265 76.0968 28.0951 75.5658 27.2235 74.8359L26.5814 75.6026ZM24.6206 71.324C24.255 71.324 23.9713 71.1549 23.7512 70.8563C23.522 70.5452 23.3741 70.1029 23.3339 69.6336C23.2935 69.1625 23.3666 68.7225 23.5158 68.4222C23.6597 68.1326 23.8361 68.0285 24.0318 68.0285V67.0285C23.3442 67.0285 22.8766 67.4613 22.6203 67.9772C22.3693 68.4822 22.2859 69.1162 22.3376 69.7189C22.3894 70.3235 22.5819 70.9551 22.9461 71.4494C23.3195 71.9562 23.8823 72.324 24.6206 72.324V71.324ZM35.5866 78.0078L43.3896 82.2489L43.8672 81.3703L36.0641 77.1292L35.5866 78.0078ZM43.3534 82.2271C43.795 82.518 44.082 83.053 44.082 83.6494H45.082C45.082 82.7413 44.6458 81.881 43.9034 81.392L43.3534 82.2271ZM34.4099 75.2192C33.9299 75.3593 33.93 75.3594 33.93 75.3595C33.93 75.3595 33.93 75.3596 33.9301 75.3597C33.9301 75.3599 33.9302 75.3601 33.9303 75.3603C33.9304 75.3608 33.9306 75.3613 33.9307 75.362C33.9311 75.3633 33.9317 75.3651 33.9323 75.3672C33.9336 75.3716 33.9354 75.3776 33.9377 75.3851C33.9423 75.4002 33.949 75.4216 33.9576 75.4485C33.9748 75.5022 34.0001 75.5783 34.0332 75.6709C34.0991 75.8554 34.1973 76.1087 34.3262 76.3832C34.5719 76.9064 34.9743 77.6067 35.5503 77.986L36.1004 77.1509C35.7727 76.9351 35.4674 76.4608 35.2313 75.9581C35.1194 75.7197 35.0331 75.4972 34.9748 75.3343C34.9458 75.2532 34.9241 75.1875 34.9098 75.143C34.9027 75.1208 34.8974 75.1039 34.8941 75.093C34.8924 75.0876 34.8913 75.0836 34.8906 75.0813C34.8902 75.0801 34.89 75.0794 34.8899 75.079C34.8898 75.0788 34.8898 75.0788 34.8898 75.0788C34.8898 75.0788 34.8898 75.0788 34.8898 75.0789C34.8899 75.0789 34.8899 75.079 34.8899 75.079C34.8899 75.0791 34.8899 75.0792 34.4099 75.2192ZM25.2483 77.1292L17.4452 81.3703L17.9228 82.2489L25.7259 78.0078L25.2483 77.1292ZM17.409 81.392C16.6666 81.881 16.2304 82.7413 16.2304 83.6494H17.2304C17.2304 83.053 17.5174 82.518 17.959 82.2271L17.409 81.392ZM26.9025 75.2192C26.4225 75.0792 26.4225 75.0791 26.4225 75.079C26.4225 75.079 26.4226 75.0789 26.4226 75.0789C26.4226 75.0788 26.4226 75.0788 26.4226 75.0788C26.4226 75.0788 26.4226 75.0788 26.4225 75.079C26.4224 75.0794 26.4222 75.0801 26.4219 75.0813C26.4212 75.0836 26.42 75.0876 26.4183 75.093C26.415 75.1039 26.4097 75.1208 26.4026 75.143C26.3883 75.1875 26.3666 75.2532 26.3376 75.3343C26.2793 75.4972 26.1931 75.7197 26.0811 75.9581C25.845 76.4608 25.5397 76.9351 25.2121 77.1509L25.7621 77.986C26.3381 77.6067 26.7405 76.9064 26.9862 76.3832C27.1151 76.1087 27.2133 75.8554 27.2792 75.6709C27.3123 75.5783 27.3376 75.5022 27.3548 75.4485C27.3634 75.4216 27.3701 75.4002 27.3747 75.3851C27.377 75.3776 27.3788 75.3716 27.3801 75.3672C27.3807 75.3651 27.3813 75.3633 27.3817 75.362C27.3819 75.3613 27.382 75.3607 27.3822 75.3603C27.3822 75.3601 27.3823 75.3599 27.3823 75.3597C27.3824 75.3596 27.3824 75.3595 27.3824 75.3595C27.3824 75.3594 27.3825 75.3593 26.9025 75.2192ZM37.2806 67.5285C37.7754 67.6004 37.7754 67.6004 37.7754 67.6004C37.7754 67.6003 37.7754 67.6003 37.7754 67.6003C37.7754 67.6002 37.7754 67.6001 37.7755 67.6C37.7755 67.5998 37.7755 67.5996 37.7756 67.5994C37.7756 67.5989 37.7757 67.5982 37.7758 67.5974C37.7761 67.5959 37.7764 67.5937 37.7767 67.591C37.7775 67.5856 37.7785 67.5779 37.7799 67.5681C37.7825 67.5484 37.7862 67.5201 37.7907 67.4835C37.7997 67.4103 37.8118 67.3044 37.8249 67.1699C37.8511 66.901 37.8812 66.5172 37.8975 66.0527L36.8981 66.0177C36.8826 66.4587 36.8541 66.8216 36.8296 67.073C36.8174 67.1986 36.8062 67.2962 36.7982 67.3615C36.7942 67.3942 36.7909 67.4188 36.7888 67.4348C36.7877 67.4429 36.7869 67.4487 36.7864 67.4523C36.7861 67.4542 36.786 67.4554 36.7859 67.4561C36.7858 67.4565 36.7858 67.4567 36.7858 67.4568C36.7858 67.4568 36.7858 67.4568 36.7858 67.4568C36.7858 67.4568 36.7858 67.4567 36.7858 67.4567C36.7858 67.4567 36.7858 67.4566 36.7858 67.4566C36.7858 67.4566 36.7858 67.4566 37.2806 67.5285ZM24.0318 67.5285C24.5266 67.4566 24.5266 67.4566 24.5266 67.4566C24.5266 67.4566 24.5266 67.4567 24.5266 67.4567C24.5266 67.4567 24.5266 67.4568 24.5266 67.4568C24.5266 67.4568 24.5266 67.4568 24.5266 67.4568C24.5266 67.4567 24.5266 67.4565 24.5265 67.4561C24.5264 67.4554 24.5263 67.4542 24.526 67.4523C24.5255 67.4487 24.5247 67.4428 24.5236 67.4348C24.5215 67.4188 24.5182 67.3942 24.5142 67.3615C24.5062 67.2962 24.495 67.1986 24.4827 67.073C24.4583 66.8216 24.4298 66.4587 24.4143 66.0177L23.4149 66.0527C23.4312 66.5172 23.4613 66.901 23.4875 67.1699C23.5006 67.3044 23.5127 67.4103 23.5217 67.4835C23.5262 67.5201 23.5299 67.5484 23.5325 67.5681C23.5338 67.5779 23.5349 67.5856 23.5357 67.591C23.536 67.5937 23.5363 67.5959 23.5366 67.5974C23.5367 67.5982 23.5368 67.5989 23.5368 67.5994C23.5369 67.5996 23.5369 67.5998 23.5369 67.6C23.537 67.6001 23.537 67.6002 23.537 67.6003C23.537 67.6003 23.537 67.6003 23.537 67.6004C23.537 67.6004 23.537 67.6004 24.0318 67.5285ZM35.5105 77.18C33.6082 78.7215 32.1961 79.4335 30.799 79.4455C29.3982 79.4576 27.8883 78.7673 25.7899 77.1706L25.1843 77.9664C27.3223 79.5932 29.0593 80.4605 30.8076 80.4455C32.5594 80.4304 34.1981 79.5306 36.1401 77.9569L35.5105 77.18Z" fill="#333333"/>
</svg>
