<svg width="40" height="40" viewBox="0 0 40 40" fill="none" xmlns="http://www.w3.org/2000/svg">
<path d="M17.3313 35.2418L0.627187 2.5016C0.0133961 1.29857 1.29857 0.0133961 2.5016 0.627187L35.2418 17.3313C36.4185 17.9317 36.1771 19.6798 34.8818 19.9388L31.6309 20.589C29.4484 21.0255 28.6331 23.7183 30.2069 25.2922L39.1838 34.269C40.2721 35.3573 40.2721 37.1218 39.1838 38.2101L38.2101 39.1838C37.1218 40.2721 35.3573 40.2721 34.269 39.1838L25.2922 30.2069C23.7183 28.6331 21.0255 29.4484 20.589 31.6309L19.9388 34.8818C19.6798 36.1771 17.9317 36.4185 17.3313 35.2418Z" fill="#A49DF4"/>
</svg>
